<!-- <svg xmlns="http://www.w3.org/2000/svg" width="24" height="24" viewBox="0 0 24 24" style="fill: rgba(0, 0, 0, 1);transform: ;msFilter:;"><path d="M19.023 16.977a35.13 35.13 0 0 1-1.367-1.384c-.372-.378-.596-.653-.596-.653l-2.8-1.337A6.962 6.962 0 0 0 16 9c0-3.859-3.14-7-7-7S2 5.141 2 9s3.14 7 7 7c1.763 0 3.37-.66 4.603-1.739l1.337 2.8s.275.224.653.596c.387.363.896.854 1.384 1.367l1.358 1.392.604.646 2.121-2.121-.646-.604c-.379-.372-.885-.866-1.391-1.36zM9 14c-2.757 0-5-2.243-5-5s2.243-5 5-5 5 2.243 5 5-2.243 5-5 5z"></path></svg> -->
<svg xmlns="http://www.w3.org/2000/svg" width="24" height="24" viewBox="0 0 24 24" style="fill: rgba(0, 0, 0, 1);transform: ;msFilter:;"><path d="M10 18a7.952 7.952 0 0 0 4.897-1.688l4.396 4.396 1.414-1.414-4.396-4.396A7.952 7.952 0 0 0 18 10c0-4.411-3.589-8-8-8s-8 3.589-8 8 3.589 8 8 8zm0-14c3.309 0 6 2.691 6 6s-2.691 6-6 6-6-2.691-6-6 2.691-6 6-6z"></path><path d="M11.412 8.586c.379.38.588.882.588 1.414h2a3.977 3.977 0 0 0-1.174-2.828c-1.514-1.512-4.139-1.512-5.652 0l1.412 1.416c.76-.758 2.07-.756 2.826-.002z"></path></svg>